<?xml version="1.0" encoding="utf-8"?>
<!-- Generator: Adobe Illustrator 23.0.4, SVG Export Plug-In . SVG Version: 6.00 Build 0)  -->
<svg version="1.1" id="Capa_1" xmlns="http://www.w3.org/2000/svg" xmlns:xlink="http://www.w3.org/1999/xlink" x="0px" y="0px"
	 viewBox="0 0 70 70" style="enable-background:new 0 0 70 70;" xml:space="preserve">
<style type="text/css">
	.st0{fill:#F2E2C4;}
	.st1{fill:#BF8D50;}
</style>
<path class="st0" d="M52.4,66H16.6C9.6,66,4,60.4,4,53.4V16.6C4,9.6,9.6,4,16.6,4h35.9C59.4,4,65,9.6,65,16.6v36.9
	C65,60.4,59.4,66,52.4,66z"/>
<g>
	<path class="st1" d="M35,6.7c9.2,0,10.3,0,14,0.2c3.4,0.2,5.2,0.7,6.4,1.2c1.6,0.6,2.8,1.4,4,2.6s2,2.4,2.6,4c0.5,1.2,1,3,1.2,6.4
		c0.2,3.6,0.2,4.7,0.2,14s0,10.3-0.2,14c-0.2,3.4-0.7,5.2-1.2,6.4c-0.6,1.6-1.4,2.8-2.6,4c-1.2,1.2-2.4,2-4,2.6
		c-1.2,0.5-3,1-6.4,1.2c-3.6,0.2-4.7,0.2-14,0.2s-10.3,0-14-0.2c-3.4-0.2-5.2-0.7-6.4-1.2c-1.6-0.6-2.8-1.4-4-2.6
		c-1.2-1.2-2-2.4-2.6-4c-0.5-1.2-1-3-1.2-6.4c-0.2-3.6-0.2-4.7-0.2-14s0-10.3,0.2-14C7,17.7,7.5,15.9,8,14.7c0.6-1.6,1.4-2.8,2.6-4
		s2.4-2,4-2.6c1.2-0.5,3-1,6.4-1.2C24.7,6.7,25.8,6.7,35,6.7 M35,0.5c-9.4,0-10.6,0-14.2,0.2c-3.7,0.2-6.2,0.8-8.4,1.6
		c-2.3,0.9-4.2,2.1-6.1,4s-3.1,3.8-4,6.1c-0.9,2.2-1.4,4.7-1.6,8.4C0.5,24.4,0.5,25.6,0.5,35s0,10.6,0.2,14.2
		c0.2,3.7,0.8,6.2,1.6,8.4c0.9,2.3,2.1,4.2,4,6.1c1.9,1.9,3.8,3.1,6.1,4c2.2,0.9,4.7,1.4,8.4,1.6s4.9,0.2,14.2,0.2s10.6,0,14.2-0.2
		c3.7-0.2,6.2-0.8,8.4-1.6c2.3-0.9,4.2-2.1,6.1-4c1.9-1.9,3.1-3.8,4-6.1c0.9-2.2,1.4-4.7,1.6-8.4s0.2-4.9,0.2-14.2s0-10.6-0.2-14.2
		c-0.2-3.7-0.8-6.2-1.6-8.4c-0.9-2.3-2.1-4.2-4-6.1s-3.8-3.1-6.1-4c-2.2-0.9-4.7-1.4-8.4-1.6C45.6,0.5,44.4,0.5,35,0.5L35,0.5z"/>
	<path class="st1" d="M35,17.3c-9.8,0-17.7,7.9-17.7,17.7S25.2,52.7,35,52.7S52.7,44.8,52.7,35S44.8,17.3,35,17.3z M35,46.5
		c-6.4,0-11.5-5.2-11.5-11.5S28.6,23.5,35,23.5S46.5,28.7,46.5,35S41.4,46.5,35,46.5z"/>
	<circle class="st1" cx="53.4" cy="16.6" r="4.1"/>
</g>
</svg>
