<?xml version="1.0" encoding="utf-8"?>
<!-- Generator: Adobe Illustrator 23.0.4, SVG Export Plug-In . SVG Version: 6.00 Build 0)  -->
<svg version="1.1" id="Capa_1" xmlns="http://www.w3.org/2000/svg" xmlns:xlink="http://www.w3.org/1999/xlink" x="0px" y="0px"
	 viewBox="0 0 70 70" style="enable-background:new 0 0 70 70;" xml:space="preserve">
<style type="text/css">
	.st0{fill:#BF8D50;}
</style>
<g>
	<path id="Facebook_1_" class="st0" d="M64.5,1.8H5.5c-2,0-3.7,1.6-3.7,3.7v59.1c0,2,1.6,3.7,3.7,3.7h31.8V42.5h-8.7v-10h8.7v-7.4
		c0-8.6,5.2-13.2,12.9-13.2c3.7,0,6.8,0.3,7.7,0.4v9l-5.3,0c-4.2,0-5,2-5,4.9v6.4h9.9l-1.3,10h-8.6v25.7h16.9c2,0,3.7-1.6,3.7-3.7
		V5.5C68.2,3.4,66.6,1.8,64.5,1.8z"/>
</g>
</svg>
