<?xml version="1.0" encoding="utf-8"?>
<!-- Generator: Adobe Illustrator 23.0.4, SVG Export Plug-In . SVG Version: 6.00 Build 0)  -->
<svg version="1.1" id="Capa_1" xmlns="http://www.w3.org/2000/svg" xmlns:xlink="http://www.w3.org/1999/xlink" x="0px" y="0px"
	 viewBox="0 0 70 70" style="enable-background:new 0 0 70 70;" xml:space="preserve">
<style type="text/css">
	.st0{fill:#BF8D50;}
</style>
<path class="st0" d="M35,2C16.8,2,2,16.8,2,35c0,18.2,14.8,33,33,33c18.2,0,33-14.8,33-33C68,16.8,53.2,2,35,2z M37.9,43.2
	c-2.3,0-4.4-1.2-5.2-2.6c0,0-1.2,4.9-1.5,5.8c-0.9,3.3-3.6,6.7-3.8,6.9c-0.1,0.2-0.5,0.1-0.5-0.1c-0.1-0.4-0.7-4.6,0.1-8.1
	c0.4-1.7,2.7-11.6,2.7-11.6S29,32.3,29,30.3c0-3.1,1.8-5.5,4.1-5.5c1.9,0,2.9,1.4,2.9,3.2c0,1.9-1.2,4.8-1.9,7.5
	c-0.5,2.3,1.1,4.1,3.4,4.1c4,0,6.7-5.2,6.7-11.3c0-4.7-3.1-8.1-8.8-8.1c-6.4,0-10.5,4.8-10.5,10.2c0,1.8,0.5,3.2,1.4,4.2
	c0.4,0.5,0.4,0.7,0.3,1.2c-0.1,0.4-0.3,1.3-0.4,1.7c-0.1,0.5-0.6,0.7-1.1,0.5c-3-1.2-4.3-4.5-4.3-8.1c0-6,5.1-13.3,15.2-13.3
	c8.1,0,13.4,5.9,13.4,12.2C49.3,37,44.7,43.2,37.9,43.2z"/>
</svg>
